<?xml version="1.0" encoding="UTF-8" standalone="no"?>
<!-- Created with Inkscape (http://www.inkscape.org/) -->

<svg
   width="35mm"
   height="35mm"
   viewBox="0 0 35 35"
   version="1.1"
   id="svg1"
   inkscape:version="1.4.3 (0d15f75, 2025-12-25)"
   inkscape:export-filename="C:\Users\brian\Downloads\export.svg"
   inkscape:export-xdpi="300"
   inkscape:export-ydpi="300"
   xml:space="preserve"
   sodipodi:docname="bjj dial red.svg"
   xmlns:inkscape="http://www.inkscape.org/namespaces/inkscape"
   xmlns:sodipodi="http://sodipodi.sourceforge.net/DTD/sodipodi-0.dtd"
   xmlns="http://www.w3.org/2000/svg"
   xmlns:svg="http://www.w3.org/2000/svg"><sodipodi:namedview
     id="namedview1"
     pagecolor="#ffffff"
     bordercolor="#000000"
     borderopacity="0.25"
     inkscape:showpageshadow="2"
     inkscape:pageopacity="0.0"
     inkscape:pagecheckerboard="0"
     inkscape:deskcolor="#d1d1d1"
     inkscape:document-units="mm"
     inkscape:zoom="5.4576438"
     inkscape:cx="70.451649"
     inkscape:cy="73.749775"
     inkscape:current-layer="svg1" /><defs
     id="defs1" /><g
     inkscape:label="Layer 1"
     inkscape:groupmode="layer"
     id="layer1" /><g
     inkscape:label="watch-dial"
     id="watch-dial"
     style="fill:#550000;stroke:#ffffff;stroke-width:0.1;stroke-dasharray:none"><circle
       cx="17.5"
       cy="17.5"
       r="14.475"
       style="fill:#550000;stroke:#ffffff;stroke-width:0.1;stroke-dasharray:none"
       id="circle1282" /><rect
       style="fill:#550000;stroke:#ffffff;stroke-width:0.1;stroke-dasharray:none"
       x="17.4"
       y="3.5"
       width="0.2"
       height="1.0"
       id="rect1282" /><rect
       style="fill:#550000;stroke:#ffffff;stroke-width:0.10000004;stroke-dasharray:none"
       x="24.15"
       y="5.308657048910078"
       width="0.2"
       height="1.0"
       transform="matrix(0.866025 0.5 -0.5 0.866025 6.15321 -11.3468)"
       id="rect1283" /><rect
       style="fill:#550000;stroke:#ffffff;stroke-width:0.10000004;stroke-dasharray:none"
       x="29.09134295108992"
       y="10.249999999999998"
       width="0.2"
       height="1.0"
       transform="matrix(0.5 0.866025 -0.866025 0.5 23.9054 -19.9054)"
       id="rect1284" /><rect
       style="fill:#550000;stroke:#ffffff;stroke-width:0.1;stroke-dasharray:none"
       x="30.9"
       y="17.0"
       width="0.2"
       height="1.0"
       transform="matrix(6.12323e-17 1 -1 6.12323e-17 48.5 -13.5)"
       id="rect1285" /><rect
       style="fill:#550000;stroke:#ffffff;stroke-width:0.10000004;stroke-dasharray:none"
       x="29.09134295108992"
       y="23.749999999999996"
       width="0.2"
       height="1.0"
       transform="matrix(-0.5 0.866025 -0.866025 -0.5 64.7881 11.0946)"
       id="rect1286" /><rect
       style="fill:#550000;stroke:#ffffff;stroke-width:0.10000004;stroke-dasharray:none"
       x="24.15"
       y="28.691342951089922"
       width="0.2"
       height="1.0"
       transform="matrix(-0.866025 0.5 -0.5 -0.866025 59.8468 42.3468)"
       id="rect1287" /><rect
       style="fill:#550000;stroke:#ffffff;stroke-width:0.1;stroke-dasharray:none"
       x="17.4"
       y="30.5"
       width="0.2"
       height="1.0"
       transform="matrix(-1 1.22465e-16 -1.22465e-16 -1 35 62)"
       id="rect1288" /><rect
       style="fill:#550000;stroke:#ffffff;stroke-width:0.10000004;stroke-dasharray:none"
       x="10.649999999999999"
       y="28.691342951089922"
       width="0.2"
       height="1.0"
       transform="matrix(-0.866025 -0.5 0.5 -0.866025 5.4641 59.8468)"
       id="rect1289" /><rect
       style="fill:#550000;stroke:#ffffff;stroke-width:0.10000004;stroke-dasharray:none"
       x="5.70865704891008"
       y="23.750000000000007"
       width="0.2"
       height="1.0"
       transform="matrix(-0.5 -0.866025 0.866025 -0.5 -12.2881 41.4054)"
       id="rect1290" /><rect
       style="fill:#550000;stroke:#ffffff;stroke-width:0.1;stroke-dasharray:none"
       x="3.9"
       y="17.000000000000004"
       width="0.2"
       height="1.0"
       transform="matrix(-1.83697e-16 -1 1 -1.83697e-16 -13.5 21.5)"
       id="rect1291" /><rect
       style="fill:#550000;stroke:#ffffff;stroke-width:0.10000004;stroke-dasharray:none"
       x="5.70865704891008"
       y="10.249999999999998"
       width="0.2"
       height="1.0"
       transform="matrix(0.5 -0.866025 0.866025 0.5 -6.40544 10.4054)"
       id="rect1292" /><rect
       style="fill:#550000;stroke:#ffffff;stroke-width:0.10000004;stroke-dasharray:none"
       x="10.649999999999993"
       y="5.3086570489100815"
       width="0.2"
       height="1.0"
       transform="matrix(0.866025 -0.5 0.5 0.866025 -1.4641 6.15321)"
       id="rect1293" /><rect
       style="fill:#550000;stroke:#ffffff;stroke-width:0.1;stroke-dasharray:none"
       x="17.4"
       y="3.5"
       width="0.2"
       height="2.0"
       id="rect1294" /><rect
       style="fill:#550000;stroke:#ffffff;stroke-width:0.1;stroke-dasharray:none"
       x="18.81113425411332"
       y="3.5739544125283107"
       width="0.2"
       height="1.0"
       transform="matrix(0.994522 0.104528 -0.104528 0.994522 0.529441 -1.95443)"
       id="rect1295" /><rect
       style="fill:#550000;stroke:#ffffff;stroke-width:0.09999996;stroke-dasharray:none"
       x="20.20680782603975"
       y="3.795007390093623"
       width="0.2"
       height="1.0"
       transform="matrix(0.978148 0.207912 -0.207912 0.978148 1.33673 -4.12817)"
       id="rect1296" /><rect
       style="fill:#550000;stroke:#ffffff;stroke-width:0.09999995;stroke-dasharray:none"
       x="21.57172942406179"
       y="4.160737030015428"
       width="0.2"
       height="1.0"
       transform="matrix(0.951057 0.309017 -0.309017 0.951057 2.50094 -6.46882)"
       id="rect1297" /><rect
       style="fill:#550000;stroke:#ffffff;stroke-width:0.10000003;stroke-dasharray:none"
       x="22.8909446815233"
       y="4.667136321824888"
       width="0.2"
       height="1.0"
       transform="matrix(0.913545 0.406737 -0.406737 0.913545 4.08934 -8.90454)"
       id="rect1298" /><rect
       style="fill:#550000;stroke:#ffffff;stroke-width:0.10000004;stroke-dasharray:none"
       x="23.9"
       y="5.241669750802297"
       width="0.2"
       height="2.0"
       transform="matrix(0.866025 0.5 -0.5 0.866025 6.33623 -11.1638)"
       id="rect1299" /><rect
       style="fill:#550000;stroke:#ffffff;stroke-width:0.10000002;stroke-dasharray:none"
       x="25.335100905948387"
       y="6.078270575938209"
       width="0.2"
       height="1.0"
       transform="matrix(0.809017 0.587785 -0.587785 0.809017 8.72428 -13.694)"
       id="rect1300" /><rect
       style="fill:#550000;stroke:#ffffff;stroke-width:0.09999996;stroke-dasharray:none"
       x="26.433263185844584"
       y="6.967544856055177"
       width="0.2"
       height="1.0"
       transform="matrix(0.743145 0.669131 -0.669131 0.743145 11.812 -15.8361)"
       id="rect1301" /><rect
       style="fill:#550000;stroke:#ffffff;stroke-width:0.09999996;stroke-dasharray:none"
       x="27.43245514394482"
       y="7.966736814155414"
       width="0.2"
       height="1.0"
       transform="matrix(0.669131 0.743145 -0.743145 0.669131 15.4017 -17.6592)"
       id="rect1302" /><rect
       style="fill:#550000;stroke:#ffffff;stroke-width:0.10000002;stroke-dasharray:none"
       x="28.32172942406179"
       y="9.064899094051611"
       width="0.2"
       height="1.0"
       transform="matrix(0.587785 0.809017 -0.809017 0.587785 19.454 -19.0509)"
       id="rect1303" /><rect
       style="fill:#550000;stroke:#ffffff;stroke-width:0.10000004;stroke-dasharray:none"
       x="28.6583302491977"
       y="9.999999999999998"
       width="0.2"
       height="2.0"
       transform="matrix(0.5 0.866025 -0.866025 0.5 23.9054 -19.4054)"
       id="rect1304" /><rect
       style="fill:#550000;stroke:#ffffff;stroke-width:0.10000003;stroke-dasharray:none"
       x="29.73286367817511"
       y="11.509055318476697"
       width="0.2"
       height="1.0"
       transform="matrix(0.406737 0.913545 -0.913545 0.406737 28.6696 -20.1291)"
       id="rect1305" /><rect
       style="fill:#550000;stroke:#ffffff;stroke-width:0.09999995;stroke-dasharray:none"
       x="30.239262969984573"
       y="12.828270575938209"
       width="0.2"
       height="1.0"
       transform="matrix(0.309017 0.951057 -0.951057 0.309017 33.6399 -19.6447)"
       id="rect1306" /><rect
       style="fill:#550000;stroke:#ffffff;stroke-width:0.09999996;stroke-dasharray:none"
       x="30.604992609906375"
       y="14.193192173960247"
       width="0.2"
       height="1.0"
       transform="matrix(0.207912 0.978148 -0.978148 0.207912 38.6932 -18.3957)"
       id="rect1307" /><rect
       style="fill:#550000;stroke:#ffffff;stroke-width:0.1;stroke-dasharray:none"
       x="30.82604558747169"
       y="15.588865745886679"
       width="0.2"
       height="1.0"
       transform="matrix(0.104528 0.994522 -0.994522 0.104528 43.6941 -16.3495)"
       id="rect1308" /><rect
       style="fill:#550000;stroke:#ffffff;stroke-width:0.1;stroke-dasharray:none"
       x="30.4"
       y="16.5"
       width="0.2"
       height="2.0"
       transform="matrix(6.12323e-17 1 -1 6.12323e-17 48 -13)"
       id="rect1309" /><rect
       style="fill:#550000;stroke:#ffffff;stroke-width:0.1;stroke-dasharray:none"
       x="30.82604558747169"
       y="18.41113425411332"
       width="0.2"
       height="1.0"
       transform="matrix(-0.104528 0.994522 -0.994522 -0.104528 52.9662 -9.86874)"
       id="rect1310" /><rect
       style="fill:#550000;stroke:#ffffff;stroke-width:0.09999996;stroke-dasharray:none"
       x="30.604992609906375"
       y="19.80680782603975"
       width="0.2"
       height="1.0"
       transform="matrix(-0.207912 0.978148 -0.978148 -0.207912 56.952 -5.50518)"
       id="rect1311" /><rect
       style="fill:#550000;stroke:#ffffff;stroke-width:0.09999995;stroke-dasharray:none"
       x="30.239262969984573"
       y="21.171729424061787"
       width="0.2"
       height="1.0"
       transform="matrix(-0.309017 0.951057 -0.951057 -0.309017 60.3257 -0.485692)"
       id="rect1312" /><rect
       style="fill:#550000;stroke:#ffffff;stroke-width:0.10000003;stroke-dasharray:none"
       x="29.73286367817511"
       y="22.490944681523303"
       width="0.2"
       height="1.0"
       transform="matrix(-0.406737 0.913545 -0.913545 -0.406737 62.9703 5.08853)"
       id="rect1313" /><rect
       style="fill:#550000;stroke:#ffffff;stroke-width:0.10000004;stroke-dasharray:none"
       x="28.658330249197704"
       y="22.999999999999996"
       width="0.2"
       height="2.0"
       transform="matrix(-0.5 0.866025 -0.866025 -0.5 63.9221 11.0946)"
       id="rect1314" /><rect
       style="fill:#550000;stroke:#ffffff;stroke-width:0.10000002;stroke-dasharray:none"
       x="28.32172942406179"
       y="24.935100905948385"
       width="0.2"
       height="1.0"
       transform="matrix(-0.587785 0.809017 -0.809017 -0.587785 65.705 17.3918)"
       id="rect1315" /><rect
       style="fill:#550000;stroke:#ffffff;stroke-width:0.09999996;stroke-dasharray:none"
       x="27.43245514394482"
       y="26.033263185844586"
       width="0.2"
       height="1.0"
       transform="matrix(-0.669131 0.743145 -0.743145 -0.669131 65.6733 23.8269)"
       id="rect1316" /><rect
       style="fill:#550000;stroke:#ffffff;stroke-width:0.09999996;stroke-dasharray:none"
       x="26.433263185844588"
       y="27.032455143944823"
       width="0.2"
       height="1.0"
       transform="matrix(-0.743145 0.669131 -0.669131 -0.743145 64.6741 30.2388)"
       id="rect1317" /><rect
       style="fill:#550000;stroke:#ffffff;stroke-width:0.10000002;stroke-dasharray:none"
       x="25.335100905948387"
       y="27.921729424061787"
       width="0.2"
       height="1.0"
       transform="matrix(-0.809017 0.587785 -0.587785 -0.809017 62.7184 36.465)"
       id="rect1318" /><rect
       style="fill:#550000;stroke:#ffffff;stroke-width:0.10000004;stroke-dasharray:none"
       x="23.9"
       y="27.758330249197705"
       width="0.2"
       height="2.0"
       transform="matrix(-0.866025 0.5 -0.5 -0.866025 59.1638 41.6638)"
       id="rect1319" /><rect
       style="fill:#550000;stroke:#ffffff;stroke-width:0.10000003;stroke-dasharray:none"
       x="22.890944681523305"
       y="29.33286367817511"
       width="0.2"
       height="1.0"
       transform="matrix(-0.913545 0.406737 -0.406737 -0.913545 56.1283 47.7353)"
       id="rect1320" /><rect
       style="fill:#550000;stroke:#ffffff;stroke-width:0.09999995;stroke-dasharray:none"
       x="21.57172942406179"
       y="29.839262969984574"
       width="0.2"
       height="1.0"
       transform="matrix(-0.951057 0.309017 -0.309017 -0.951057 51.6581 52.4967)"
       id="rect1321" /><rect
       style="fill:#550000;stroke:#ffffff;stroke-width:0.09999996;stroke-dasharray:none"
       x="20.20680782603975"
       y="30.204992609906377"
       width="0.2"
       height="1.0"
       transform="matrix(-0.978148 0.207912 -0.207912 -0.978148 46.5538 56.517)"
       id="rect1322" /><rect
       style="fill:#550000;stroke:#ffffff;stroke-width:0.1;stroke-dasharray:none"
       x="18.811134254113323"
       y="30.42604558747169"
       width="0.2"
       height="1.0"
       transform="matrix(-0.994522 0.104528 -0.104528 -0.994522 40.9513 59.7059)"
       id="rect1323" /><rect
       style="fill:#550000;stroke:#ffffff;stroke-width:0.1;stroke-dasharray:none"
       x="17.4"
       y="29.5"
       width="0.2"
       height="2.0"
       transform="matrix(-1 1.22465e-16 -1.22465e-16 -1 35 61)"
       id="rect1324" /><rect
       style="fill:#550000;stroke:#ffffff;stroke-width:0.1;stroke-dasharray:none"
       x="15.98886574588668"
       y="30.42604558747169"
       width="0.2"
       height="1.0"
       transform="matrix(-0.994522 -0.104528 0.104528 -0.994522 28.8569 63.3644)"
       id="rect1325" /><rect
       style="fill:#550000;stroke:#ffffff;stroke-width:0.09999996;stroke-dasharray:none"
       x="14.593192173960247"
       y="30.204992609906377"
       width="0.2"
       height="1.0"
       transform="matrix(-0.978148 -0.207912 0.207912 -0.978148 22.6814 63.7939)"
       id="rect1326" /><rect
       style="fill:#550000;stroke:#ffffff;stroke-width:0.09999995;stroke-dasharray:none"
       x="13.228270575938213"
       y="29.839262969984574"
       width="0.2"
       height="1.0"
       transform="matrix(-0.951057 -0.309017 0.309017 -0.951057 16.6289 63.3123)"
       id="rect1327" /><rect
       style="fill:#550000;stroke:#ffffff;stroke-width:0.10000003;stroke-dasharray:none"
       x="11.909055318476698"
       y="29.332863678175112"
       width="0.2"
       height="1.0"
       transform="matrix(-0.913545 -0.406737 0.406737 -0.913545 10.8458 61.9711)"
       id="rect1328" /><rect
       style="fill:#550000;stroke:#ffffff;stroke-width:0.10000004;stroke-dasharray:none"
       x="10.899999999999999"
       y="27.7583302491977"
       width="0.2"
       height="2.0"
       transform="matrix(-0.866025 -0.5 0.5 -0.866025 6.14711 59.1638)"
       id="rect1329" /><rect
       style="fill:#550000;stroke:#ffffff;stroke-width:0.10000002;stroke-dasharray:none"
       x="9.464899094051615"
       y="27.92172942406179"
       width="0.2"
       height="1.0"
       transform="matrix(-0.809017 -0.587785 0.587785 -0.809017 0.597192 57.0375)"
       id="rect1330" /><rect
       style="fill:#550000;stroke:#ffffff;stroke-width:0.09999996;stroke-dasharray:none"
       x="8.366736814155415"
       y="27.032455143944823"
       width="0.2"
       height="1.0"
       transform="matrix(-0.743145 -0.669131 0.669131 -0.743145 -3.66406 53.6584)"
       id="rect1331" /><rect
       style="fill:#550000;stroke:#ffffff;stroke-width:0.09999996;stroke-dasharray:none"
       x="7.367544856055176"
       y="26.033263185844582"
       width="0.2"
       height="1.0"
       transform="matrix(-0.669131 -0.743145 0.743145 -0.669131 -7.25375 49.8369)"
       id="rect1332" /><rect
       style="fill:#550000;stroke:#ffffff;stroke-width:0.10000002;stroke-dasharray:none"
       x="6.478270575938211"
       y="24.93510090594839"
       width="0.2"
       height="1.0"
       transform="matrix(-0.587785 -0.809017 0.809017 -0.587785 -10.1325 45.7074)"
       id="rect1333" /><rect
       style="fill:#550000;stroke:#ffffff;stroke-width:0.10000004;stroke-dasharray:none"
       x="6.141669750802301"
       y="23.000000000000007"
       width="0.2"
       height="2.0"
       transform="matrix(-0.5 -0.866025 0.866025 -0.5 -11.4221 41.4054)"
       id="rect1334" /><rect
       style="fill:#550000;stroke:#ffffff;stroke-width:0.10000003;stroke-dasharray:none"
       x="5.067136321824886"
       y="22.490944681523303"
       width="0.2"
       height="1.0"
       transform="matrix(-0.406737 -0.913545 0.913545 -0.406737 -13.7345 37.0626)"
       id="rect1335" /><rect
       style="fill:#550000;stroke:#ffffff;stroke-width:0.09999995;stroke-dasharray:none"
       x="4.560737030015428"
       y="21.17172942406179"
       width="0.2"
       height="1.0"
       transform="matrix(-0.309017 -0.951057 0.951057 -0.309017 -14.5101 32.8013)"
       id="rect1336" /><rect
       style="fill:#550000;stroke:#ffffff;stroke-width:0.09999996;stroke-dasharray:none"
       x="4.195007390093625"
       y="19.80680782603976"
       width="0.2"
       height="1.0"
       transform="matrix(-0.207912 -0.978148 0.978148 -0.207912 -14.6751 28.73)"
       id="rect1337" /><rect
       style="fill:#550000;stroke:#ffffff;stroke-width:0.1;stroke-dasharray:none"
       x="3.973954412528309"
       y="18.41113425411332"
       width="0.2"
       height="1.0"
       transform="matrix(-0.104528 -0.994522 0.994522 -0.104528 -14.3077 24.9395)"
       id="rect1338" /><rect
       style="fill:#550000;stroke:#ffffff;stroke-width:0.1;stroke-dasharray:none"
       x="4.4"
       y="16.500000000000004"
       width="0.2"
       height="2.0"
       transform="matrix(-1.83697e-16 -1 1 -1.83697e-16 -13 22)"
       id="rect1339" /><rect
       style="fill:#550000;stroke:#ffffff;stroke-width:0.1;stroke-dasharray:none"
       x="3.973954412528309"
       y="15.588865745886686"
       width="0.2"
       height="1.0"
       transform="matrix(0.104528 -0.994522 0.994522 0.104528 -12.3526 18.4588)"
       id="rect1340" /><rect
       style="fill:#550000;stroke:#ffffff;stroke-width:0.09999996;stroke-dasharray:none"
       x="4.195007390093625"
       y="14.193192173960249"
       width="0.2"
       height="1.0"
       transform="matrix(0.207912 -0.978148 0.978148 0.207912 -10.9701 15.8395)"
       id="rect1341" /><rect
       style="fill:#550000;stroke:#ffffff;stroke-width:0.09999995;stroke-dasharray:none"
       x="4.560737030015426"
       y="12.828270575938213"
       width="0.2"
       height="1.0"
       transform="matrix(0.309017 -0.951057 0.951057 0.309017 -9.45545 13.6422)"
       id="rect1342" /><rect
       style="fill:#550000;stroke:#ffffff;stroke-width:0.10000003;stroke-dasharray:none"
       x="5.067136321824886"
       y="11.509055318476703"
       width="0.2"
       height="1.0"
       transform="matrix(0.406737 -0.913545 0.913545 0.406737 -7.90535 11.8449)"
       id="rect1343" /><rect
       style="fill:#550000;stroke:#ffffff;stroke-width:0.10000004;stroke-dasharray:none"
       x="6.141669750802299"
       y="9.999999999999998"
       width="0.2"
       height="2.0"
       transform="matrix(0.5 -0.866025 0.866025 0.5 -6.40544 10.9054)"
       id="rect1344" /><rect
       style="fill:#550000;stroke:#ffffff;stroke-width:0.10000002;stroke-dasharray:none"
       x="6.4782705759382075"
       y="9.064899094051615"
       width="0.2"
       height="1.0"
       transform="matrix(0.587785 -0.809017 0.809017 0.587785 -5.02651 9.26473)"
       id="rect1345" /><rect
       style="fill:#550000;stroke:#ffffff;stroke-width:0.09999996;stroke-dasharray:none"
       x="7.367544856055174"
       y="7.96673681415542"
       width="0.2"
       height="1.0"
       transform="matrix(0.669131 -0.743145 0.743145 0.669131 -3.82123 8.35085)"
       id="rect1346" /><rect
       style="fill:#550000;stroke:#ffffff;stroke-width:0.09999996;stroke-dasharray:none"
       x="8.366736814155416"
       y="6.967544856055177"
       width="0.2"
       height="1.0"
       transform="matrix(0.743145 -0.669131 0.669131 0.743145 -2.82204 7.58343)"
       id="rect1347" /><rect
       style="fill:#550000;stroke:#ffffff;stroke-width:0.10000002;stroke-dasharray:none"
       x="9.46489909405161"
       y="6.078270575938211"
       width="0.2"
       height="1.0"
       transform="matrix(0.809017 -0.587785 0.587785 0.809017 -2.03988 6.87844)"
       id="rect1348" /><rect
       style="fill:#550000;stroke:#ffffff;stroke-width:0.10000004;stroke-dasharray:none"
       x="10.899999999999995"
       y="5.241669750802302"
       width="0.2"
       height="2.0"
       transform="matrix(0.866025 -0.5 0.5 0.866025 -1.64711 6.33623)"
       id="rect1349" /><rect
       style="fill:#550000;stroke:#ffffff;stroke-width:0.10000003;stroke-dasharray:none"
       x="11.909055318476698"
       y="4.667136321824886"
       width="0.2"
       height="1.0"
       transform="matrix(0.913545 -0.406737 0.406737 0.913545 -1.06343 5.33125)"
       id="rect1350" /><rect
       style="fill:#550000;stroke:#ffffff;stroke-width:0.09999995;stroke-dasharray:none"
       x="13.228270575938206"
       y="4.160737030015428"
       width="0.2"
       height="1.0"
       transform="matrix(0.951057 -0.309017 0.309017 0.951057 -0.787915 4.34677)"
       id="rect1351" /><rect
       style="fill:#550000;stroke:#ffffff;stroke-width:0.09999996;stroke-dasharray:none"
       x="14.593192173960242"
       y="3.795007390093625"
       width="0.2"
       height="1.0"
       transform="matrix(0.978148 -0.207912 0.207912 0.978148 -0.571901 3.14874)"
       id="rect1352" /><rect
       style="fill:#550000;stroke:#ffffff;stroke-width:0.1;stroke-dasharray:none"
       x="15.98886574588668"
       y="3.5739544125283107"
       width="0.2"
       height="1.0"
       transform="matrix(0.994522 -0.104528 0.104528 0.994522 -0.337708 1.70406)"
       id="rect1353" /><text
       style="dominant-baseline:central;font-family:Barlow Condensed;font-size:3;text-anchor:middle;fill:#550000;stroke:#ffffff;stroke-width:0.1;stroke-dasharray:none"
       x="17.5"
       y="7.5"
       id="text1353">12</text><text
       style="dominant-baseline:central;font-family:Barlow Condensed;font-size:3;text-anchor:middle;fill:#550000;stroke:#ffffff;stroke-width:0.1;stroke-dasharray:none"
       x="22.5"
       y="8.839745962155613"
       id="text1354">1</text><text
       style="dominant-baseline:central;font-family:Barlow Condensed;font-size:3;text-anchor:middle;fill:#550000;stroke:#ffffff;stroke-width:0.1;stroke-dasharray:none"
       x="26.160254037844386"
       y="12.5"
       id="text1355">2</text><text
       style="dominant-baseline:central;font-family:Barlow Condensed;font-size:3;text-anchor:middle;fill:#550000;stroke:#ffffff;stroke-width:0.1;stroke-dasharray:none"
       x="27.5"
       y="17.5"
       id="text1356">3</text><text
       style="dominant-baseline:central;font-family:Barlow Condensed;font-size:3;text-anchor:middle;fill:#550000;stroke:#ffffff;stroke-width:0.1;stroke-dasharray:none"
       x="26.16025403784439"
       y="22.5"
       id="text1357">4</text><text
       style="dominant-baseline:central;font-family:Barlow Condensed;font-size:3;text-anchor:middle;fill:#550000;stroke:#ffffff;stroke-width:0.1;stroke-dasharray:none"
       x="22.5"
       y="26.16025403784439"
       id="text1358">5</text><text
       style="dominant-baseline:central;font-family:Barlow Condensed;font-size:3;text-anchor:middle;fill:#550000;stroke:#ffffff;stroke-width:0.1;stroke-dasharray:none"
       x="17.5"
       y="27.5"
       id="text1359">6</text><text
       style="dominant-baseline:central;font-family:Barlow Condensed;font-size:3;text-anchor:middle;fill:#550000;stroke:#ffffff;stroke-width:0.1;stroke-dasharray:none"
       x="12.5"
       y="26.160254037844386"
       id="text1360">7</text><text
       style="dominant-baseline:central;font-family:Barlow Condensed;font-size:3;text-anchor:middle;fill:#550000;stroke:#ffffff;stroke-width:0.1;stroke-dasharray:none"
       x="8.839745962155614"
       y="22.500000000000004"
       id="text1361">8</text><text
       style="dominant-baseline:central;font-family:Barlow Condensed;font-size:3;text-anchor:middle;fill:#550000;stroke:#ffffff;stroke-width:0.1;stroke-dasharray:none"
       x="7.5"
       y="17.500000000000004"
       id="text1362">9</text><text
       style="dominant-baseline:central;font-family:Barlow Condensed;font-size:3;text-anchor:middle;fill:#550000;stroke:#ffffff;stroke-width:0.1;stroke-dasharray:none"
       x="8.839745962155614"
       y="12.5"
       id="text1363">10</text><text
       style="dominant-baseline:central;font-family:Barlow Condensed;font-size:3;text-anchor:middle;fill:#550000;stroke:#ffffff;stroke-width:0.1;stroke-dasharray:none"
       x="12.499999999999996"
       y="8.839745962155616"
       id="text1364">11</text></g><path
     style="fill:#f9f9f9;stroke-width:0.999999"
     d="m 18.505749,13.755246 c -0.134065,-0.01738 -0.247555,-0.08084 -0.287459,-0.160738 -0.07784,-0.155852 0.01554,-0.330786 0.176875,-0.331372 0.03841,-1.43e-4 0.05247,0.0038 0.08683,0.02448 0.06966,0.04187 0.09268,0.11278 0.0679,0.20914 -0.009,0.03503 -0.0089,0.0431 9.05e-4,0.06055 0.01746,0.03111 0.0648,0.05421 0.111397,0.05435 0.149626,4.66e-4 0.258904,-0.17798 0.297111,-0.485172 0.0187,-0.150344 0.02285,-0.444347 0.0229,-1.622713 6e-5,-1.354015 0.002,-1.291296 -0.04314,-1.374278 -0.03451,-0.0634 -0.095,-0.0989 -0.18786,-0.110244 l -0.0455,-0.0056 v -0.0303 -0.0303 l 0.449279,-0.002 0.449279,-0.002 v 0.03358 c 0,0.03182 -0.0013,0.03384 -0.02464,0.0385 -0.130814,0.02616 -0.187402,0.09019 -0.213879,0.24202 -0.01022,0.05862 -0.01173,0.221143 -0.01185,1.281284 -1.79e-4,1.149978 -9.05e-4,1.219956 -0.01459,1.324096 -0.04285,0.326133 -0.139331,0.551596 -0.302116,0.705992 -0.108388,0.102803 -0.236221,0.162827 -0.38456,0.180569 -0.07521,0.009 -0.07764,0.009 -0.146895,1.9e-5 z m -1.248411,-0.0066 c -0.175123,-0.03747 -0.271607,-0.13429 -0.27237,-0.273315 -3.58e-4,-0.06904 0.01735,-0.113173 0.06346,-0.157909 0.09364,-0.09087 0.25705,-0.06451 0.309438,0.04992 0.0164,0.03581 0.01838,0.04839 0.0145,0.0918 -0.0025,0.02767 -0.0066,0.05937 -0.0093,0.07045 -0.0069,0.02917 0.03598,0.07474 0.07679,0.08153 0.07401,0.01232 0.167813,-0.02103 0.229041,-0.08145 0.03803,-0.03752 0.09054,-0.129663 0.11597,-0.203467 0.0237,-0.06879 0.04568,-0.221221 0.05229,-0.362725 0.0033,-0.0709 0.0056,-0.710695 0.0051,-1.421769 -9.05e-4,-1.181249 -0.0021,-1.296308 -0.01356,-1.332778 -0.03473,-0.110259 -0.101762,-0.168194 -0.21673,-0.187329 l -0.03223,-0.0054 v -0.03346 -0.03346 h 0.451174 0.451175 v 0.03398 c 0,0.03086 -0.0019,0.03442 -0.02085,0.03874 -0.08215,0.01875 -0.104839,0.02913 -0.143448,0.06565 -0.04536,0.04289 -0.06422,0.08433 -0.0775,0.170193 -0.0059,0.03827 -0.0084,0.40796 -0.0085,1.239783 -1.6e-5,0.752042 -0.0029,1.217123 -0.0078,1.272453 -0.03113,0.347266 -0.126613,0.611826 -0.274383,0.760208 -0.0954,0.09579 -0.203757,0.15989 -0.338486,0.20022 -0.05701,0.01707 -0.08221,0.01993 -0.194411,0.0221 -0.0709,0.0014 -0.142591,-4.39e-4 -0.159315,-0.004 z m -1.861494,-1.056161 v -0.04148 l 0.04739,-0.0045 c 0.09193,-0.0087 0.158866,-0.04376 0.192222,-0.100681 0.04201,-0.07169 0.04072,-0.03356 0.04068,-1.193679 -2e-5,-0.661319 -0.0029,-1.0927 -0.0075,-1.124411 -0.0081,-0.0559 -0.03344,-0.113268 -0.06174,-0.139646 -0.02816,-0.02626 -0.08399,-0.04749 -0.150181,-0.05714 l -0.0609,-0.0089 v -0.03692 -0.03692 l 0.566812,0.0031 c 0.485692,0.0026 0.577653,0.0049 0.642561,0.01581 0.26083,0.04385 0.421973,0.126131 0.544356,0.277957 0.166521,0.206585 0.170438,0.498455 0.0095,0.711117 -0.08235,0.108843 -0.230101,0.212301 -0.381571,0.267182 -0.02621,0.0095 -0.04653,0.02064 -0.04515,0.02476 0.0014,0.0041 0.04678,0.02042 0.100893,0.03621 0.124822,0.03643 0.191444,0.06152 0.253519,0.09551 0.17491,0.09575 0.292553,0.241304 0.342267,0.423472 0.02263,0.08292 0.02457,0.2691 0.0036,0.348808 -0.01654,0.063 -0.06149,0.162548 -0.09645,0.213631 -0.09742,0.142355 -0.297296,0.269918 -0.502899,0.320961 -0.139517,0.03463 -0.221453,0.03881 -0.847959,0.04315 l -0.58956,0.0041 z m 1.099502,-0.123052 c 0.03962,-0.0061 0.102507,-0.01997 0.139746,-0.03086 0.216232,-0.0633 0.373044,-0.21847 0.417052,-0.412677 0.0149,-0.06575 0.01699,-0.195855 0.0043,-0.265973 -0.03735,-0.205995 -0.176674,-0.378671 -0.367016,-0.454888 -0.121959,-0.04884 -0.257429,-0.06803 -0.480307,-0.06803 l -0.130803,-6e-6 v 0.621787 0.621787 l 0.172508,-4.4e-5 c 0.112775,-3e-5 0.197451,-0.0038 0.244545,-0.01109 z m -0.113543,-1.399561 c 0.221865,-0.02721 0.375311,-0.114049 0.448384,-0.253768 0.05041,-0.0964 0.0633,-0.152267 0.06293,-0.272938 -3.59e-4,-0.113551 -0.01136,-0.173874 -0.04619,-0.253042 -0.05814,-0.132146 -0.181858,-0.231492 -0.343581,-0.275903 -0.04857,-0.01333 -0.08529,-0.01622 -0.241174,-0.01895 l -0.183883,-0.0032 v 0.542857 0.542857 h 0.119628 c 0.06579,0 0.148542,-0.0035 0.183882,-0.0079 z"
     id="path1364" /></svg>
